<svg width="85" height="40" viewBox="0 0 85 40" fill="none" xmlns="http://www.w3.org/2000/svg">
<path d="M24.2313 4.10239C23.9068 3.60575 23.4327 3.59149 22.8925 3.57523C22.8313 3.57339 22.7693 3.57153 22.7065 3.56893C22.6587 3.56673 22.6059 3.56758 22.5508 3.56846C22.3317 3.57198 22.0755 3.57609 21.9463 3.39212C21.7967 3.17883 21.8109 2.76663 21.8226 2.42635C21.8263 2.31882 21.8297 2.21841 21.8277 2.1338C21.8067 1.34332 21.7628 0.503628 21.4575 0.22292C21.2273 0.0123098 20.5385 0.041487 19.9033 0.0683954C19.6974 0.0771184 19.4971 0.085603 19.3198 0.085603H5.79926C5.52703 0.085603 5.24167 0.0634489 4.96129 0.0416813C4.41496 -0.000733803 3.88753 -0.0416812 3.513 0.085603C2.96943 0.271231 2.93263 1.24667 2.89797 2.16519L2.8961 2.21461C2.86701 2.97288 2.67898 3.55799 2.05582 3.49906C1.33104 3.43161 0.609843 3.41035 0.282147 4.06594C-0.10487 4.84161 -0.0250517 5.65358 0.117914 7.10792C0.138336 7.31567 0.160047 7.53652 0.181869 7.77225H24.4403C24.4542 7.59995 24.4689 7.42986 24.4835 7.26253C24.5971 5.95406 24.696 4.81402 24.2313 4.10239Z" fill="#8047F8"/>
<path fill-rule="evenodd" clip-rule="evenodd" d="M2.07104 9.21467C2.44991 14.3395 2.82465 19.4701 3.19939 24.6009L3.19962 24.604C3.40309 27.3898 3.60656 30.1757 3.8107 32.9606H4.58472C4.63747 33.3965 4.69782 33.9347 4.76145 34.5021C4.89061 35.6539 5.0333 36.9264 5.15327 37.7083H5.23888C6.02729 37.42 11.4777 35.0916 11.4801 25.8218C11.4791 25.7954 11.48 25.7689 11.4827 25.7427H10.1362C10.071 25.7421 10.0078 25.7203 9.95636 25.6808C9.9049 25.6413 9.86801 25.5861 9.85137 25.5238C9.72015 25.1999 9.61435 24.8664 9.5349 24.5264C8.74274 24.9736 8.11367 25.6564 7.73735 26.4775C7.38013 25.6365 7.33337 24.6983 7.60525 23.8267C7.87713 22.9551 8.45036 22.2057 9.22476 21.7093C9.23474 19.0043 10.2481 16.3968 12.073 14.3804L12.1015 14.3553C12.1545 14.3095 12.2224 14.284 12.2928 14.2834C12.3336 14.2838 12.3738 14.2925 12.411 14.309C12.4486 14.3257 12.4822 14.35 12.5097 14.3804C14.3559 16.3996 15.3639 19.0321 15.3326 21.7531C16.1215 22.2356 16.7064 22.9845 16.9788 23.8608C17.2511 24.7371 17.1925 25.6813 16.8137 26.5181C16.4394 25.6957 15.8098 25.0123 15.0162 24.5671C14.9677 24.8966 14.8784 25.219 14.7503 25.527C14.706 25.6583 14.6174 25.7427 14.5288 25.7427H13.0928C13.095 25.7584 13.0966 25.7742 13.0976 25.7901L13.0981 25.7937V25.8014C13.0986 25.815 13.0986 25.8287 13.0982 25.8424C13.1178 35.3783 18.9128 37.5428 19.4012 37.7083H19.5683C19.611 36.9572 19.7498 35.9208 19.8852 34.9104C19.9785 34.2142 20.0701 33.5302 20.1274 32.9606H20.9104C21.161 29.4527 21.4188 25.9546 21.6766 22.4564L21.6767 22.4545L21.6768 22.4535C22.0065 17.9789 22.3362 13.5042 22.651 9.0087H2.12118C2.06209 9.02024 2.06612 9.11685 2.07104 9.21467ZM12.2928 14.2834L12.2914 14.2834H12.2945L12.2928 14.2834Z" fill="#8047F8"/>
<path d="M31.3266 5.69821C31.3266 4.43316 31.7626 3.45274 32.6348 2.75696C33.5228 2.04537 34.8548 1.68958 36.6307 1.68958C37.8041 1.68958 38.8031 1.80027 39.6277 2.02165V5.29498C38.7397 5.02615 37.8596 4.89174 36.9875 4.89174C36.1312 4.89174 35.5762 4.99453 35.3225 5.2001C35.0688 5.38985 34.942 5.67449 34.942 6.05401V14.0238C34.942 14.7829 35.5366 15.1624 36.7259 15.1624C37.931 15.1624 38.9221 15.0438 39.699 14.8066V18.0088C38.8428 18.246 37.8041 18.3646 36.5832 18.3646C34.8072 18.3646 33.4831 18.0167 32.611 17.3209C31.7547 16.6251 31.3266 15.6447 31.3266 14.3796V5.69821Z" fill="#C4C4CC"/>
<path d="M46.647 7.95159C46.647 7.35069 46.314 7.05024 45.648 7.05024C44.982 7.05024 44.649 7.35069 44.649 7.95159V14.5457C44.649 15.1466 44.982 15.447 45.648 15.447C46.314 15.447 46.647 15.1466 46.647 14.5457V7.95159ZM41.1288 7.83299C41.1288 6.63119 41.5014 5.69821 42.2467 5.03406C43.0078 4.35409 44.1416 4.01411 45.648 4.01411C47.1544 4.01411 48.2802 4.35409 49.0255 5.03406C49.7867 5.69821 50.1672 6.63119 50.1672 7.83299V14.6643C50.1672 15.8661 49.7867 16.807 49.0255 17.4869C48.2802 18.1511 47.1544 18.4832 45.648 18.4832C44.1416 18.4832 43.0078 18.1511 42.2467 17.4869C41.5014 16.807 41.1288 15.8661 41.1288 14.6643V7.83299Z" fill="#C4C4CC"/>
<path d="M52.479 4.08527C52.479 1.41284 53.8903 0.0766322 56.7128 0.0766322C57.0776 0.0766322 57.5136 0.116165 58.021 0.195231V2.94672C57.7673 2.9151 57.5295 2.89928 57.3075 2.89928C56.4988 2.89928 56.0944 3.2788 56.0944 4.03783V4.25131H58.021V7.05024H56.0944V18.246H52.479V7.05024H51.1233V4.25131H52.479V4.08527Z" fill="#C4C4CC"/>
<path d="M59.4939 4.08527C59.4939 1.41284 60.9051 0.0766322 63.7277 0.0766322C64.0924 0.0766322 64.5285 0.116165 65.0359 0.195231V2.94672C64.7822 2.9151 64.5443 2.89928 64.3223 2.89928C63.5136 2.89928 63.1093 3.2788 63.1093 4.03783V4.25131H65.0359V7.05024H63.1093V18.246H59.4939V7.05024H58.1381V4.25131H59.4939V4.08527Z" fill="#C4C4CC"/>
<path d="M65.8665 14.261V7.83299C65.8665 6.63119 66.2391 5.69821 66.9844 5.03406C67.7297 4.35409 68.8555 4.01411 70.3619 4.01411C73.2638 4.01411 74.7147 5.28707 74.7147 7.83299V12.6481H69.3154V13.9764C69.3154 14.4508 69.4422 14.7908 69.696 14.9964C69.9655 15.1861 70.5443 15.281 71.4323 15.281C72.3361 15.281 73.3193 15.1229 74.3817 14.8066V17.9376C73.2717 18.2381 72.0824 18.3883 70.8139 18.3883C67.5156 18.3883 65.8665 17.0125 65.8665 14.261ZM69.3154 9.92033H71.4085V7.88043C71.4085 7.27953 71.0596 6.97908 70.3619 6.97908C69.6642 6.97908 69.3154 7.27953 69.3154 7.88043V9.92033Z" fill="#C4C4CC"/>
<path d="M76.1332 14.261V7.83299C76.1332 6.63119 76.5059 5.69821 77.2512 5.03406C77.9964 4.35409 79.1223 4.01411 80.6287 4.01411C83.5305 4.01411 84.9814 5.28707 84.9814 7.83299V12.6481H79.5821V13.9764C79.5821 14.4508 79.709 14.7908 79.9627 14.9964C80.2323 15.1861 80.811 15.281 81.699 15.281C82.6029 15.281 83.586 15.1229 84.6484 14.8066V17.9376C83.5384 18.2381 82.3492 18.3883 81.0806 18.3883C77.7824 18.3883 76.1332 17.0125 76.1332 14.261ZM79.5821 9.92033H81.6752V7.88043C81.6752 7.27953 81.3264 6.97908 80.6287 6.97908C79.931 6.97908 79.5821 7.27953 79.5821 7.88043V9.92033Z" fill="#C4C4CC"/>
<path d="M37.0515 26.9797C37.0515 25.8119 36.4335 25.2281 35.1975 25.2281H33.2264V35.874H35.1975C36.4335 35.874 37.0515 35.2771 37.0515 34.0834V26.9797ZM31.8407 24.0214H35.2756C36.3164 24.0214 37.1036 24.2874 37.637 24.8194C38.1705 25.3513 38.4372 26.065 38.4372 26.9602V34.1224C38.4372 35.0436 38.177 35.7702 37.6565 36.3022C37.1361 36.8341 36.3555 37.1001 35.3146 37.1001H31.8407V24.0214Z" fill="#C4C4CC"/>
<path d="M40.7175 34.2781V28.8675C40.7175 27.9463 40.9778 27.2132 41.4982 26.6683C42.0316 26.1104 42.8318 25.8314 43.8987 25.8314C44.9656 25.8314 45.7527 26.1104 46.2601 26.6683C46.7806 27.2132 47.0408 27.9463 47.0408 28.8675V32.254H42.0837V34.2197C42.0837 34.8036 42.2658 35.2382 42.6301 35.5237C42.9944 35.8091 43.5604 35.9518 44.328 35.9518C45.0957 35.9518 45.8893 35.8351 46.709 35.6015V36.886C46.0585 37.0936 45.2843 37.1974 44.3866 37.1974C41.9406 37.1974 40.7175 36.2243 40.7175 34.2781ZM42.0837 31.1057H45.7137V28.8675C45.7137 27.6479 45.1087 27.0381 43.8987 27.0381C42.6887 27.0381 42.0837 27.6479 42.0837 28.8675V31.1057Z" fill="#C4C4CC"/>
<path d="M49.4129 23.0872H50.7986V37.1001H49.4129V23.0872Z" fill="#C4C4CC"/>
<path d="M54.1746 24.7804C53.6151 24.7804 53.3354 24.482 53.3354 23.8852C53.3354 23.2883 53.6151 22.9899 54.1746 22.9899C54.7471 22.9899 55.0333 23.2883 55.0333 23.8852C55.0333 24.482 54.7471 24.7804 54.1746 24.7804ZM53.4915 26.1039H54.8772V37.1001H53.4915V26.1039Z" fill="#C4C4CC"/>
<path d="M62.0198 26.026H63.425L60.9659 37.1001H59.0143L56.5553 26.026H57.9799L59.0533 31.1057L60.0096 36.127C60.4 33.9732 61.07 30.6062 62.0198 26.026Z" fill="#C4C4CC"/>
<path d="M64.9032 34.2781V28.8675C64.9032 27.9463 65.1634 27.2132 65.6838 26.6683C66.2173 26.1104 67.0174 25.8314 68.0843 25.8314C69.1512 25.8314 69.9384 26.1104 70.4458 26.6683C70.9662 27.2132 71.2264 27.9463 71.2264 28.8675V32.254H66.2693V34.2197C66.2693 34.8036 66.4515 35.2382 66.8158 35.5237C67.1801 35.8091 67.746 35.9518 68.5137 35.9518C69.2813 35.9518 70.075 35.8351 70.8947 35.6015V36.886C70.2441 37.0936 69.47 37.1974 68.5722 37.1974C66.1262 37.1974 64.9032 36.2243 64.9032 34.2781ZM66.2693 31.1057H69.8993V28.8675C69.8993 27.6479 69.2943 27.0381 68.0843 27.0381C66.8743 27.0381 66.2693 27.6479 66.2693 28.8675V31.1057Z" fill="#C4C4CC"/>
<path d="M77.1895 25.9676H77.6775V27.2911H77.0139C76.5455 27.2911 76.1227 27.4143 75.7453 27.6609C75.6282 27.7387 75.3745 27.9139 74.9842 28.1864V37.1001H73.5986V26.026H74.9257V26.8629C74.9647 26.837 75.0623 26.7656 75.2184 26.6488C75.3876 26.5321 75.4851 26.4672 75.5112 26.4542C75.5502 26.4283 75.6348 26.3764 75.7649 26.2985C75.908 26.2207 76.0121 26.1752 76.0771 26.1623C76.1552 26.1363 76.2593 26.1039 76.3894 26.065C76.5845 26.0001 76.8513 25.9676 77.1895 25.9676Z" fill="#C4C4CC"/>
<path d="M83.6144 26.026H85L81.9555 40H80.6284L81.2334 37.1001H80.5503L78.1303 26.026H79.5355L80.7064 31.5339L81.5652 36.127C81.8254 34.596 82.1116 33.0649 82.4239 31.5339L83.6144 26.026Z" fill="#C4C4CC"/>
</svg>
