<svg width="25" height="38" viewBox="0 0 25 38" fill="none" xmlns="http://www.w3.org/2000/svg">
<g clip-path="url(#clip0_19540_625)">
<path fill-rule="evenodd" clip-rule="evenodd" d="M22.8925 3.57523C23.4327 3.59149 23.9068 3.60575 24.2313 4.10239C24.696 4.81402 24.5971 5.95406 24.4835 7.26253C24.4689 7.42986 24.4542 7.59995 24.4403 7.77225H0.181869C0.160047 7.53652 0.138336 7.31567 0.117914 7.10792C-0.0250517 5.65358 -0.10487 4.84161 0.282147 4.06594C0.609843 3.41035 1.33104 3.43161 2.05582 3.49906C2.67898 3.55799 2.86701 2.97288 2.89611 2.21461L2.89797 2.16519C2.93263 1.24667 2.96943 0.271231 3.513 0.085603C3.88754 -0.0416812 4.41496 -0.000733806 4.96129 0.0416813C5.24167 0.0634489 5.52703 0.085603 5.79926 0.085603H19.3198C19.4971 0.085603 19.6974 0.0771184 19.9033 0.0683954C20.5385 0.041487 21.2273 0.0123098 21.4575 0.22292C21.7628 0.503628 21.8067 1.34332 21.8277 2.1338C21.8297 2.21791 21.8263 2.31763 21.8226 2.42443L21.8226 2.42483L21.8226 2.42526L21.8226 2.42535V2.42543V2.42551V2.42559V2.42567V2.42574V2.42582V2.42589V2.42596V2.42603V2.4261V2.42616V2.42623V2.42629V2.42635V2.42637C21.8109 2.76665 21.7967 3.17883 21.9463 3.39212C22.0755 3.57609 22.3317 3.57198 22.5508 3.56846C22.6059 3.56758 22.6587 3.56673 22.7065 3.56893C22.7693 3.57153 22.8313 3.57339 22.8925 3.57523ZM3.19929 24.5996C2.82459 19.4693 2.44988 14.339 2.07104 9.21467C2.06612 9.11685 2.06209 9.02024 2.12118 9.0087H22.651C22.3362 13.5042 22.0065 17.9789 21.6768 22.4535L21.6767 22.4545L21.6766 22.4564C21.4188 25.9546 21.161 29.4527 20.9104 32.9606H20.1275C20.0701 33.5302 19.9785 34.214 19.8852 34.9102L19.8852 34.9103L19.8852 34.9103L19.8852 34.9105L19.8852 34.9106C19.7498 35.9209 19.611 36.9573 19.5683 37.7083H19.4012C18.9128 37.5428 13.1178 35.3783 13.0982 25.8424C13.0986 25.8287 13.0986 25.815 13.0981 25.8014V25.7937L13.0976 25.7901C13.0966 25.7742 13.095 25.7584 13.0928 25.7427H14.5288C14.6174 25.7427 14.706 25.6583 14.7503 25.527C14.8784 25.219 14.9677 24.8966 15.0162 24.5671C15.8098 25.0123 16.4394 25.6957 16.8137 26.5181C17.1925 25.6813 17.2511 24.7371 16.9788 23.8608C16.7064 22.9845 16.1215 22.2356 15.3326 21.7531C15.3639 19.0321 14.3559 16.3996 12.5097 14.3804C12.4822 14.35 12.4486 14.3257 12.411 14.309C12.3738 14.2925 12.3336 14.2838 12.2928 14.2834L12.2945 14.2834H12.2914L12.2928 14.2834C12.2224 14.284 12.1545 14.3095 12.1015 14.3553L12.073 14.3804C10.2481 16.3968 9.23474 19.0043 9.22476 21.7093C8.45036 22.2057 7.87713 22.9551 7.60525 23.8267C7.33337 24.6983 7.38013 25.6365 7.73735 26.4775C8.11367 25.6564 8.74274 24.9736 9.5349 24.5264C9.61435 24.8664 9.72015 25.1999 9.85137 25.5238C9.86801 25.5861 9.9049 25.6413 9.95636 25.6808C10.0078 25.7203 10.071 25.7421 10.1362 25.7427H11.4827C11.48 25.7689 11.4791 25.7954 11.4801 25.8218C11.4777 35.0916 6.02729 37.42 5.23888 37.7083H5.15327C5.0333 36.9264 4.89061 35.6539 4.76145 34.5021C4.69782 33.9347 4.63747 33.3965 4.58472 32.9606H3.8107C3.60656 30.1757 3.40309 27.3898 3.19962 24.604L3.19939 24.6009L3.19929 24.5996Z" fill="#8047F8"/>
</g>
<defs>
<clipPath id="clip0_19540_625">
<rect width="25" height="38" fill="white"/>
</clipPath>
</defs>
</svg>
